<mxfile host="app.diagrams.net" agent="Mozilla/5.0 (Macintosh; Intel Mac OS X 10_15_7) AppleWebKit/537.36 (KHTML, like Gecko) Chrome/117.0.0.0 Safari/537.36" version="24.8.3">
  <diagram name="Page-1" id="2DM7SOBMeJ0CuV3zBIjH">
    <mxGraphModel dx="954" dy="539" grid="0" gridSize="10" guides="1" tooltips="1" connect="1" arrows="1" fold="1" page="1" pageScale="1" pageWidth="850" pageHeight="1100" background="#6fc8b2" math="0" shadow="0">
      <root>
        <mxCell id="0" />
        <mxCell id="1" parent="0" />
        <mxCell id="VwFE8Y8X0MU8JdsPZ00t-6" value="" style="edgeStyle=orthogonalEdgeStyle;rounded=0;orthogonalLoop=1;jettySize=auto;html=1;" edge="1" parent="1" source="VwFE8Y8X0MU8JdsPZ00t-1">
          <mxGeometry relative="1" as="geometry">
            <mxPoint x="205" y="170" as="targetPoint" />
          </mxGeometry>
        </mxCell>
        <mxCell id="VwFE8Y8X0MU8JdsPZ00t-1" value="GIT HUB" style="ellipse;whiteSpace=wrap;html=1;fillColor=#e1d5e7;strokeColor=#9673a6;" vertex="1" parent="1">
          <mxGeometry x="30" y="130" width="90" height="80" as="geometry" />
        </mxCell>
        <mxCell id="VwFE8Y8X0MU8JdsPZ00t-7" value="" style="edgeStyle=orthogonalEdgeStyle;rounded=0;orthogonalLoop=1;jettySize=auto;html=1;" edge="1" parent="1" target="VwFE8Y8X0MU8JdsPZ00t-1">
          <mxGeometry relative="1" as="geometry">
            <mxPoint x="205" y="170" as="sourcePoint" />
          </mxGeometry>
        </mxCell>
        <mxCell id="VwFE8Y8X0MU8JdsPZ00t-9" value="Commit" style="text;html=1;align=center;verticalAlign=middle;resizable=0;points=[];autosize=1;strokeColor=none;fillColor=none;" vertex="1" parent="1">
          <mxGeometry x="150" y="128" width="60" height="30" as="geometry" />
        </mxCell>
        <mxCell id="VwFE8Y8X0MU8JdsPZ00t-13" style="edgeStyle=orthogonalEdgeStyle;rounded=0;orthogonalLoop=1;jettySize=auto;html=1;exitX=1;exitY=0.5;exitDx=0;exitDy=0;entryX=0;entryY=0.5;entryDx=0;entryDy=0;" edge="1" parent="1" source="VwFE8Y8X0MU8JdsPZ00t-10" target="VwFE8Y8X0MU8JdsPZ00t-11">
          <mxGeometry relative="1" as="geometry" />
        </mxCell>
        <mxCell id="VwFE8Y8X0MU8JdsPZ00t-10" value="Code pipline" style="ellipse;whiteSpace=wrap;html=1;fillColor=#ffe6cc;strokeColor=#d79b00;" vertex="1" parent="1">
          <mxGeometry x="210" y="128" width="120" height="80" as="geometry" />
        </mxCell>
        <mxCell id="VwFE8Y8X0MU8JdsPZ00t-17" value="" style="edgeStyle=orthogonalEdgeStyle;rounded=0;orthogonalLoop=1;jettySize=auto;html=1;" edge="1" parent="1" source="VwFE8Y8X0MU8JdsPZ00t-11" target="VwFE8Y8X0MU8JdsPZ00t-16">
          <mxGeometry relative="1" as="geometry" />
        </mxCell>
        <mxCell id="VwFE8Y8X0MU8JdsPZ00t-11" value="Code Build" style="ellipse;whiteSpace=wrap;html=1;fillColor=#dae8fc;strokeColor=#6c8ebf;" vertex="1" parent="1">
          <mxGeometry x="350" y="128" width="110" height="80" as="geometry" />
        </mxCell>
        <mxCell id="VwFE8Y8X0MU8JdsPZ00t-19" value="" style="edgeStyle=orthogonalEdgeStyle;rounded=0;orthogonalLoop=1;jettySize=auto;html=1;" edge="1" parent="1" source="VwFE8Y8X0MU8JdsPZ00t-16" target="VwFE8Y8X0MU8JdsPZ00t-18">
          <mxGeometry relative="1" as="geometry" />
        </mxCell>
        <mxCell id="VwFE8Y8X0MU8JdsPZ00t-16" value="Code Deployment" style="whiteSpace=wrap;html=1;aspect=fixed;fillColor=#e1d5e7;strokeColor=#9673a6;" vertex="1" parent="1">
          <mxGeometry x="520" y="130" width="140" height="140" as="geometry" />
        </mxCell>
        <mxCell id="VwFE8Y8X0MU8JdsPZ00t-18" value="DB Connect&lt;br&gt;&lt;br&gt;AWS SECRET MANAGER" style="ellipse;whiteSpace=wrap;html=1;fillColor=#fff2cc;strokeColor=#d6b656;" vertex="1" parent="1">
          <mxGeometry x="720" y="160" width="130" height="130" as="geometry" />
        </mxCell>
        <mxCell id="VwFE8Y8X0MU8JdsPZ00t-20" value="Code Integration / Code Deployment" style="text;html=1;align=center;verticalAlign=middle;resizable=0;points=[];autosize=1;strokeColor=#9673a6;fillColor=#e1d5e7;" vertex="1" parent="1">
          <mxGeometry x="254" y="58" width="220" height="30" as="geometry" />
        </mxCell>
      </root>
    </mxGraphModel>
  </diagram>
</mxfile>
